#!OML:ASF I:\golf\golf\golf 2\Subject 1\2002-09-07\Subject1.ASF
:FULLY-SPECIFIED
:DEGREES
527
root -5.72214 18.0494 -1.12883 -165.283 2.52201 -176.899
lowerback -4.31931 8.33077 6.4105
upperback -6.01098 11.8947 2.06821
thorax -3.08724 6.09026 -1.1122
lowerneck -19.5493 -12.1237 -2.72321
upperneck 3.83403 -16.0103 4.11154
head 4.73216 -7.73236 0.122586
rclavicle 8.3092e-014 1.11319e-014
rhumerus 65.0673 38.01 -66.9089
rradius 40.8534
rwrist -13.0621
rhand -39.5892 23.7013
rfingers 7.12502
rthumb -12.5717 -5.9004
lclavicle 8.3092e-014 1.11319e-014
lhumerus 45.8005 -6.93778 77.2435
lradius 35.6065
lwrist 30.8022
lhand -12.5665 13.9268
lfingers 7.12502
lthumb -166.489 583.469
rfemur 6.73416 -5.18452 18.9709
rtibia 26.1272
rfoot 27.0437 -23.7797
rtoes 17.3673
lfemur -30.3418 -16.9013 -11.695
ltibia 23.2784
lfoot 37.586 -39.3599
ltoes 51.6638
528
root -5.72553 18.0474 -1.12472 -165.245 2.53426 -176.903
lowerback -4.33511 8.32078 6.49098
upperback -5.95974 11.8656 2.05599
thorax -3.00823 6.07229 -1.15759
lowerneck -19.5081 -12.0597 -2.70397
upperneck 3.69331 -15.9304 4.1111
head 4.67794 -7.69938 0.136207
rclavicle 7.67806e-014 1.59028e-014
rhumerus 64.3327 38.4306 -67.1057
rradius 41.4032
rwrist -13.8856
rhand -38.8687 21.4509
rfingers 7.12502
rthumb -11.877 -8.19221
lclavicle 7.67806e-014 1.59028e-014
lhumerus 45.0351 -6.96432 77.5492
lradius 35.8586
lwrist 30.9091
lhand -11.6698 13.6627
lfingers 7.12502
lthumb -165.625 583.145
rfemur 6.66332 -5.19019 18.9545
rtibia 26.1963
rfoot 26.6887 -23.6527
rtoes 17.0625
lfemur -30.3568 -16.8545 -11.7167
ltibia 23.1998
lfoot 37.7879 -39.2057
ltoes 51.8493
529
root -5.72714 18.0465 -1.12051 -165.232 2.60907 -177.028
lowerback -4.31827 8.32124 6.38918
upperback -5.88961 11.8485 2.03851
thorax -2.95811 6.06317 -1.11924
lowerneck -19.5699 -12.0113 -2.7102
upperneck 3.64322 -15.8598 4.06925
head 4.66602 -7.66917 0.130937
rclavicle 3.8763e-014 -3.18055e-014
rhumerus 63.055 38.5079 -68.3216
rradius 41.3737
rwrist -12.4626
rhand -38.2666 21.0852
rfingers 7.12502
rthumb -11.2964 -8.59058
lclavicle 3.8763e-014 -3.18055e-014
lhumerus 44.2592 -7.01158 77.8332
lradius 36.1439
lwrist 30.9918
lhand -11.1397 13.6965
lfingers 7.12502
lthumb -165.114 583.142
rfemur 6.6104 -5.1613 18.8093
rtibia 26.2746
rfoot 26.5966 -23.6292
rtoes 16.7644
lfemur -30.3369 -16.8434 -11.8617
ltibia 23.0954
lfoot 37.9638 -38.9575
ltoes 52.0384
530
root -5.72783 18.047 -1.11756 -165.239 2.6984 -177.208
lowerback -4.2804 8.31481 6.19217
upperback -5.82753 11.8255 2.01926
thorax -2.94534 6.05273 -1.03946
lowerneck -19.656 -11.9643 -2.67241
upperneck 3.63176 -15.7937 3.95671
head 4.66051 -7.64322 0.0959251
rclavicle 3.70236e-014 -1.43125e-014
rhumerus 61.6582 38.4543 -69.7531
rradius 41.0185
rwrist -10.8969
rhand -38.0562 23.0357
rfingers 7.12502
rthumb -11.0935 -6.65106
lclavicle 3.70236e-014 -1.43125e-014
lhumerus 43.4885 -7.05587 78.1961
lradius 36.3293
lwrist 30.8423
lhand -10.9747 13.8402
lfingers 7.12502
lthumb -164.955 583.274
rfemur 6.5628 -5.10279 18.6089
rtibia 26.3448
rfoot 26.5658 -23.6651
rtoes 16.3822
lfemur -30.2799 -16.8775 -12.0566
ltibia 22.988
lfoot 37.8303 -38.9912
ltoes 51.8795
531
root -5.72845 18.0485 -1.11635 -165.242 2.75433 -177.304
lowerback -4.28035 8.30859 6.09493
upperback -5.75184 11.7994 2.01575
thorax -2.883 6.04004 -0.986531
lowerneck -19.7227 -11.9104 -2.61229
upperneck 3.55955 -15.7237 3.83716
head 4.63058 -7.61835 0.0596688
rclavicle -1.2921e-014 -9.54166e-015
rhumerus 60.5179 38.5328 -70.7062
rradius 40.9322
rwrist -10.6725
rhand -37.6411 24.2168
rfingers 7.12502
rthumb -10.693 -5.49105
lclavicle -1.2921e-014 -9.54166e-015
lhumerus 42.7996 -7.05845 78.625
lradius 36.4034
lwrist 30.5584
lhand -10.7524 13.9923
lfingers 7.12502
lthumb -164.741 583.409
rfemur 6.52717 -5.08223 18.4912
rtibia 26.4042
rfoot 26.4179 -23.8068
rtoes 16.426
lfemur -30.2176 -16.8845 -12.1668
ltibia 22.8887
lfoot 37.5949 -39.186
ltoes 51.6357
532
root -5.72782 18.0486 -1.11429 -165.237 2.79757 -177.329
lowerback -4.26978 8.31022 6.04478
upperback -5.68866 11.7912 2.03861
thorax -2.83618 6.03677 -0.933745
lowerneck -19.8045 -11.8733 -2.62406
upperneck 3.56032 -15.6647 3.77649
head 4.63691 -7.59292 0.0453026
rclavicle -1.89566e-013 -5.40694e-014
rhumerus 59.6233 38.9028 -71.0063
rradius 41.3675
rwrist -11.8691
rhand -37.4565 23.3087
rfingers 7.12502
rthumb -10.515 -6.40829
lclavicle -1.89566e-013 -5.40694e-014
lhumerus 42.0705 -7.09044 79.0106
lradius 36.5534
lwrist 30.3697
lhand -10.4293 14.2216
lfingers 7.12502
lthumb -164.43 583.615
rfemur 6.51486 -5.0586 18.4613
rtibia 26.432
rfoot 26.1891 -23.9821
rtoes 16.8248
lfemur -30.1859 -16.8464 -12.1955
ltibia 22.8279
lfoot 37.5064 -39.2449
ltoes 51.5687
533
root -5.72826 18.0503 -1.1113 -165.211 2.84184 -177.315
lowerback -4.22365 8.31157 6.04763
upperback -5.66849 11.794 2.05919
thorax -2.84396 6.03741 -0.920368
lowerneck -19.8731 -11.8408 -2.68211
upperneck 3.6496 -15.6072 3.77903
head 4.6785 -7.56118 0.0527556
rclavicle -5.54112e-015 -6.36111e-015
rhumerus 59.1578 39.7177 -70.4021
rradius 42.3841
rwrist -15.0263
rhand -37.4804 20.6429
rfingers 7.12502
rthumb -10.5381 -9.07294
lclavicle -5.54112e-015 -6.36111e-015
lhumerus 41.2913 -7.13434 79.3634
lradius 36.684
lwrist 30.2895
lhand -10.0031 14.3398
lfingers 7.12502
lthumb -164.019 583.701
rfemur 6.47617 -4.98672 18.4877
rtibia 26.4251
rfoot 26.2871 -23.9015
rtoes 16.7324
lfemur -30.2056 -16.8128 -12.169
ltibia 22.808
lfoot 37.3973 -39.3231
ltoes 51.4566
534
root -5.73135 18.0524 -1.10992 -165.214 2.89697 -177.332
lowerback -4.16892 8.3205 6.06308
upperback -5.6475 11.8032 2.05213
thorax -2.84688 6.03909 -0.941637
lowerneck -19.8741 -11.8061 -2.68717
upperneck 3.66757 -15.5596 3.77637
head 4.68342 -7.5374 0.0569941
rclavicle -1.44044e-013 -9.85972e-014
rhumerus 57.3599 39.3192 -72.4409
rradius 41.619
rwrist -11.9852
rhand -37.2707 22.8616
rfingers 7.12502
rthumb -10.3358 -6.86436
lclavicle -1.44044e-013 -9.85972e-014
lhumerus 40.4418 -7.11846 79.8248
lradius 36.8426
lwrist 30.0989
lhand -9.56952 14.474
lfingers 7.12502
lthumb -163.602 583.801
rfemur 6.47192 -5.04262 18.4134
rtibia 26.396
rfoot 26.6904 -23.3779
rtoes 15.73
lfemur -30.2023 -16.8264 -12.1984
ltibia 22.8124
lfoot 37.2093 -39.4578
ltoes 51.2941
535
root -5.73523 18.0527 -1.10924 -165.252 2.97264 -177.419
lowerback -4.17474 8.34038 5.89619
upperback -5.57753 11.8251 2.11968
thorax -2.81367 6.05685 -0.781047
lowerneck -19.8315 -11.7979 -2.71015
upperneck 3.60606 -15.5288 3.65278
head 4.64757 -7.53254 0.032056
rclavicle -9.323e-014 -3.18055e-015
rhumerus 56.0005 39.2527 -73.5469
rradius 41.3672
rwrist -11.1308
rhand -37.1402 23.7387
rfingers 7.12502
rthumb -10.2099 -5.99355
lclavicle -9.323e-014 -3.18055e-015
lhumerus 39.5336 -6.9978 80.5432
lradius 37.0503
lwrist 29.7914
lhand -9.17939 14.6253
lfingers 7.12502
lthumb -163.226 583.921
rfemur 6.52692 -5.15757 18.2333
rtibia 26.3506
rfoot 27.0603 -22.8233
rtoes 14.6538
lfemur -30.17 -16.8585 -12.3237
ltibia 22.8364
lfoot 37.0927 -39.4453
ltoes 51.1881
536
root -5.73831 18.0536 -1.10947 -165.23 3.0552 -177.498
lowerback -4.26585 8.36786 5.72207
upperback -5.50064 11.8511 2.18516
thorax -2.72736 6.07919 -0.603334
lowerneck -19.7843 -11.7876 -2.7228
upperneck 3.49451 -15.4971 3.51605
head 4.59329 -7.53001 0.00413544
rclavicle -1.06598e-013 1.90833e-014
rhumerus 54.8784 39.3302 -74.2556
rradius 41.3584
rwrist -11.2262
rhand -36.6972 24.2777
rfingers 7.12502
rthumb -9.78248 -5.47511
lclavicle -1.06598e-013 1.90833e-014
lhumerus 38.7035 -6.92379 81.1574
lradius 37.2139
lwrist 29.7272
lhand -8.8499 14.8026
lfingers 7.12502
lthumb -162.909 584.071
rfemur 6.53344 -5.19065 18.0934
rtibia 26.2914
rfoot 27.1795 -22.6635
rtoes 14.4085
lfemur -30.2175 -16.8413 -12.4324
ltibia 22.8938
lfoot 36.9603 -39.4826
ltoes 51.1533
537
root -5.73946 18.0551 -1.11011 -165.168 3.11655 -177.53
lowerback -4.31961 8.39299 5.73229
upperback -5.47481 11.8681 2.12961
thorax -2.65552 6.08537 -0.650152
lowerneck -19.834 -11.761 -2.66417
upperneck 3.5034 -15.4764 3.51436
head 4.59864 -7.51895 -0.00514116
rclavicle -1.87578e-013 -8.74653e-014
rhumerus 53.786 39.3269 -75.1046
rradius 41.4584
rwrist -11.5123
rhand -36.151 24.5139
rfingers 7.12502
rthumb -9.25553 -5.26295
lclavicle -1.87578e-013 -8.74653e-014
lhumerus 37.9375 -6.9591 81.4995
lradius 37.3663
lwrist 29.9428
lhand -8.44782 15.0375
lfingers 7.12502
lthumb -162.522 584.272
rfemur 6.49809 -5.18378 18.0323
rtibia 26.2305
rfoot 27.0654 -22.8126
rtoes 14.8451
lfemur -30.3146 -16.8133 -12.462
ltibia 22.9774
lfoot 36.6283 -39.7511
ltoes 51.0131
538
root -5.73967 18.0554 -1.10932 -165.118 3.12985 -177.426
lowerback -4.40739 8.41248 5.78438
upperback -5.4224 11.8859 2.1874
thorax -2.55436 6.0981 -0.597561
lowerneck -19.945 -11.7573 -2.71017
upperneck 3.57766 -15.4583 3.50763
head 4.64079 -7.50745 -0.00789528
rclavicle -5.15846e-014 -7.79236e-014
rhumerus 52.8297 39.3775 -75.6718
rradius 41.6433
rwrist -12.2403
rhand -35.844 22.958
rfingers 7.12502
rthumb -8.95929 -6.83175
lclavicle -5.15846e-014 -7.79236e-014
lhumerus 37.1953 -6.9354 81.9967
lradius 37.4408
lwrist 30.1337
lhand -7.8058 15.2036
lfingers 7.12502
lthumb -161.904 584.382
rfemur 6.47202 -5.16205 18.1453
rtibia 26.1791
rfoot 27.0011 -22.8594
rtoes 15.0141
lfemur -30.4045 -16.8068 -12.322
ltibia 23.0624
lfoot 36.4363 -39.9222
ltoes 50.8505
539
root -5.74046 18.0537 -1.1074 -165.089 3.15525 -177.271
lowerback -4.48803 8.43698 5.87535
upperback -5.34403 11.9106 2.28592
thorax -2.43133 6.11506 -0.522301
lowerneck -19.9998 -11.7504 -2.75224
upperneck 3.5334 -15.4316 3.44291
head 4.63141 -7.50043 -0.0195869
rclavicle -2.86498e-014 5.24792e-014
rhumerus 51.8686 39.4417 -76.2447
rradius 41.6456
rwrist -12.6905
rhand -35.5096 21.6058
rfingers 7.12502
rthumb -8.63653 -8.19755
lclavicle -2.86498e-014 5.24792e-014
lhumerus 36.4772 -6.92527 82.4605
lradius 37.4539
lwrist 30.3254
lhand -7.1501 15.4338
lfingers 7.12502
lthumb -161.274 584.552
rfemur 6.47096 -5.19683 18.276
rtibia 26.1276
rfoot 27.0163 -22.7554
rtoes 15.0148
lfemur -30.4793 -16.778 -12.144
ltibia 23.1549
lfoot 36.603 -39.8141
ltoes 50.9383
